<svg xmlns="http://www.w3.org/2000/svg" width="64" height="64" viewBox="400 100 600 600">
  <!-- SMB Web Client favicon - based on smb2.conf.svg -->
  <g>
    <!-- Cloud - blue -->
    <path d="M 787.78 508.25 L 792.96 517.00 L 788.73 516.88 C784.98,516.77 774.69,515.36 754.00,512.14 C750.42,511.58 739.40,509.96 729.50,508.54 C714.58,506.40 697.64,503.81 676.20,500.41 C673.35,499.96 672.99,499.59 673.57,497.70 C673.93,496.49 683.91,477.05 695.74,454.50 C697.75,450.66 699.64,447.06 701.40,443.69 C723.31,401.90 726.65,395.53 728.26,395.94 C728.68,396.05 728.98,396.61 729.46,397.13 C730.16,397.88 733.52,404.58 736.93,412.00 C740.34,419.42 743.74,426.12 744.49,426.88 C745.64,428.06 747.02,427.62 753.67,423.97 C786.78,405.82 809.79,384.74 820.89,362.40 C826.66,350.79 829.14,341.94 829.74,330.78 L 830.26 321.06 L 689.50 320.50 L 683.74 318.17 C670.75,312.93 660.63,303.09 655.80,291.00 C652.58,282.96 652.62,265.85 655.87,258.00 C661.03,245.58 672.44,234.90 684.86,230.91 L 691.60 228.74 L 692.66 222.02 C694.89,207.82 703.58,195.76 715.93,189.72 C722.12,186.69 723.14,186.50 733.50,186.50 C742.99,186.50 745.08,186.81 748.71,188.75 C751.03,189.99 753.31,191.00 753.78,191.00 C754.25,191.00 755.95,188.19 757.57,184.75 C761.88,175.55 774.99,162.74 785.30,157.65 C789.58,155.53 795.43,153.17 798.30,152.41 C828.41,144.40 859.84,159.00 873.43,187.32 C878.00,196.84 879.99,204.10 880.02,211.30 C880.02,213.61 880.36,216.00 880.77,216.60 C881.17,217.21 883.97,218.51 887.00,219.49 C896.42,222.55 902.22,226.03 908.73,232.55 C924.25,248.06 928.18,271.51 918.59,291.35 C911.68,305.64 895.11,318.31 881.51,319.71 C878.45,320.03 875.76,320.57 875.55,320.92 C875.33,321.27 875.78,324.47 876.54,328.03 C878.39,336.67 878.37,356.84 876.49,366.72 C873.43,382.86 865.33,402.00 855.71,415.80 C840.24,438.00 816.51,458.74 785.25,477.38 C779.43,480.85 775.00,484.15 775.00,485.01 C775.00,486.47 776.43,489.07 787.78,508.25 Z" fill="#3D91D9"/>
    <!-- Folder back - dark yellow -->
    <path d="M 484.27 550.50 C480.70,564.80 477.60,576.69 477.39,576.92 L 477.39 576.92 C477.17,576.92 477.00,521.98 477.00,454.63 C477.00,353.95 477.24,331.36 478.35,328.72 C480.34,323.96 484.71,319.20 489.38,316.71 C493.42,314.54 494.35,314.49 536.47,314.21 C578.38,313.92 579.57,313.97 585.19,316.07 C590.94,318.22 596.44,323.05 600.59,329.59 C605.47,337.28 610.49,343.34 614.21,346.04 L 618.30 349.00 L 696.58 349.00 C749.11,349.00 775.80,349.35 777.68,350.06 C779.23,350.64 781.53,352.21 782.79,353.56 C784.05,354.90 785.65,356.00 786.35,356.00 C787.05,356.00 788.92,357.35 790.50,359.00 C792.85,361.45 793.45,363.09 793.81,368.00 L 794.24 374.00 L 780.37 374.03 C536.01,374.59 512.99,374.82 509.72,376.73 C507.97,377.76 505.27,380.38 503.74,382.56 L 500.96 386.52 L 500.49 436.01 L 500.02 485.50 L 495.39 505.00 C492.85,515.72 487.84,536.20 484.27,550.50 Z" fill="#DDA60C"/>
    <!-- Folder front - bright yellow -->
    <path d="M 787.78 508.25 C776.43,489.07 775.00,486.47 775.00,485.01 C775.00,484.15 779.43,480.85 785.25,477.38 C808.68,463.41 827.88,448.26 842.54,432.20 C841.55,433.33 840.54,434.46 839.51,435.60 C834.71,440.87 831.63,445.07 831.81,446.12 C831.97,447.08 830.74,453.19 829.07,459.68 C827.41,466.18 823.59,481.62 820.59,494.00 C817.58,506.38 811.47,531.58 807.00,550.00 C802.52,568.42 798.20,585.38 797.38,587.67 C795.15,593.95 790.64,599.54 785.29,602.68 L 780.50 605.50 L 638.00 605.71 C499.94,605.91 495.35,605.86 490.64,604.01 C484.71,601.69 482.57,599.83 479.15,594.00 L 476.50 589.50 L 476.23 461.88 C475.97,338.89 476.03,334.09 477.84,329.87 C477.99,329.52 478.14,329.19 478.30,328.85 C477.23,332.06 477.00,355.47 477.00,454.63 C477.00,521.98 477.17,576.92 477.39,576.92 L 477.39 576.92 C477.60,576.69 480.70,564.80 484.27,550.50 C487.84,536.20 492.85,515.72 495.39,505.00 L 500.02 485.50 L 500.46 439.00 C500.43,453.33 500.55,465.44 500.77,468.85 C501.07,473.51 501.65,476.59 502.08,475.83 C502.50,475.08 505.85,461.87 509.53,446.48 C513.21,431.09 516.87,416.92 517.66,415.00 C519.50,410.52 524.40,405.42 529.50,402.66 C533.44,400.53 534.35,400.49 594.57,400.00 L 655.65 399.50 L 659.70 396.82 C661.93,395.34 665.95,391.61 668.63,388.52 C671.31,385.44 676.17,381.25 679.44,379.21 L 685.38 375.50 L 680.44 375.00 C677.72,374.72 638.93,374.57 594.24,374.66 C588.73,374.67 583.57,374.68 578.74,374.69 C618.47,374.43 681.19,374.26 780.37,374.03 L 794.24 374.00 L 793.81 368.00 C793.63,365.58 793.40,363.95 792.92,362.63 C794.26,365.39 795.00,368.29 795.00,371.08 L 795.00 373.86 L 804.25 374.18 L 804.89 374.21 C809.45,374.37 811.93,374.46 813.81,373.44 C814.19,373.23 814.55,372.98 814.89,372.67 C812.71,375.92 810.27,379.13 807.58,382.30 L 807.58 382.31 C798.03,393.56 785.47,404.23 770.00,414.20 C767.01,416.13 764.25,417.86 761.73,419.38 C759.12,420.93 756.43,422.46 753.67,423.97 C753.41,424.12 753.17,424.25 752.92,424.38 C748.84,426.50 746.12,427.51 745.01,427.29 C744.82,427.19 744.65,427.05 744.49,426.88 C744.38,426.77 744.22,426.54 744.01,426.20 C743.21,424.87 741.84,422.25 740.21,418.93 C739.18,416.83 738.06,414.45 736.93,412.00 C735.97,409.90 735.01,407.87 734.11,406.00 C730.88,399.12 728.31,394.01 728.05,394.01 C727.75,394.02 724.96,398.86 721.87,404.76 C720.90,406.60 719.07,410.08 716.67,414.67 L 716.67 414.67 C712.97,421.62 708.04,431.03 701.40,443.69 C699.64,447.06 697.75,450.66 695.74,454.50 C688.59,468.13 682.12,480.62 678.04,488.63 C678.03,488.64 678.03,488.65 678.02,488.66 C677.90,488.89 677.79,489.12 677.67,489.35 C677.66,489.38 677.64,489.41 677.62,489.44 C675.20,494.22 673.70,497.24 673.57,497.70 C673.42,498.17 673.34,498.55 673.33,498.86 C673.33,499.78 674.06,500.07 676.20,500.41 C697.64,503.81 714.58,506.40 729.50,508.54 C739.40,509.96 750.42,511.58 754.00,512.14 C774.69,515.36 784.98,516.77 788.73,516.88 L 792.96 517.00 Z" fill="#F5C020"/>
  </g>
</svg>
