<svg xmlns="http://www.w3.org/2000/svg" width="1387" height="756" viewBox="0 0 1387 756">
<g>
<path d="M 787.78 508.25 L 792.96 517.00 L 788.73 516.88 C784.98,516.77 774.69,515.36 754.00,512.14 C750.42,511.58 739.40,509.96 729.50,508.54 C714.58,506.40 697.64,503.81 676.20,500.41 C673.35,499.96 672.99,499.59 673.57,497.70 C673.93,496.49 683.91,477.05 695.74,454.50 C697.75,450.66 699.64,447.06 701.40,443.69 C723.31,401.90 726.65,395.53 728.26,395.94 C728.68,396.05 728.98,396.61 729.46,397.13 C730.16,397.88 733.52,404.58 736.93,412.00 C740.34,419.42 743.74,426.12 744.49,426.88 C745.64,428.06 747.02,427.62 753.67,423.97 C786.78,405.82 809.79,384.74 820.89,362.40 C826.66,350.79 829.14,341.94 829.74,330.78 L 830.26 321.06 L 689.50 320.50 L 683.74 318.17 C670.75,312.93 660.63,303.09 655.80,291.00 C652.58,282.96 652.62,265.85 655.87,258.00 C661.03,245.58 672.44,234.90 684.86,230.91 L 691.60 228.74 L 692.66 222.02 C694.89,207.82 703.58,195.76 715.93,189.72 C722.12,186.69 723.14,186.50 733.50,186.50 C742.99,186.50 745.08,186.81 748.71,188.75 C751.03,189.99 753.31,191.00 753.78,191.00 C754.25,191.00 755.95,188.19 757.57,184.75 C761.88,175.55 774.99,162.74 785.30,157.65 C789.58,155.53 795.43,153.17 798.30,152.41 C828.41,144.40 859.84,159.00 873.43,187.32 C878.00,196.84 879.99,204.10 880.02,211.30 C880.02,213.61 880.36,216.00 880.77,216.60 C881.17,217.21 883.97,218.51 887.00,219.49 C896.42,222.55 902.22,226.03 908.73,232.55 C924.25,248.06 928.18,271.51 918.59,291.35 C911.68,305.64 895.11,318.31 881.51,319.71 C878.45,320.03 875.76,320.57 875.55,320.92 C875.33,321.27 875.78,324.47 876.54,328.03 C878.39,336.67 878.37,356.84 876.49,366.72 C873.43,382.86 865.33,402.00 855.71,415.80 C840.24,438.00 816.51,458.74 785.25,477.38 C779.43,480.85 775.00,484.15 775.00,485.01 C775.00,486.47 776.43,489.07 787.78,508.25 Z" fill="rgb(61,145,217)"/>
<path d="M 484.27 550.50 C480.70,564.80 477.60,576.69 477.39,576.92 L 477.39 576.92 C477.17,576.92 477.00,521.98 477.00,454.63 C477.00,353.95 477.24,331.36 478.35,328.72 C480.34,323.96 484.71,319.20 489.38,316.71 C493.42,314.54 494.35,314.49 536.47,314.21 C578.38,313.92 579.57,313.97 585.19,316.07 C590.94,318.22 596.44,323.05 600.59,329.59 C605.47,337.28 610.49,343.34 614.21,346.04 L 618.30 349.00 L 696.58 349.00 C749.11,349.00 775.80,349.35 777.68,350.06 C779.23,350.64 781.53,352.21 782.79,353.56 C784.05,354.90 785.65,356.00 786.35,356.00 C787.05,356.00 788.92,357.35 790.50,359.00 C792.85,361.45 793.45,363.09 793.81,368.00 L 794.24 374.00 L 780.37 374.03 C536.01,374.59 512.99,374.82 509.72,376.73 C507.97,377.76 505.27,380.38 503.74,382.56 L 500.96 386.52 L 500.49 436.01 L 500.02 485.50 L 495.39 505.00 C492.85,515.72 487.84,536.20 484.27,550.50 ZM 716.67 414.67 C719.07,410.08 720.90,406.60 721.87,404.76 C724.96,398.86 727.75,394.02 728.05,394.01 C728.31,394.01 730.88,399.12 734.11,406.00 C731.83,401.27 729.96,397.67 729.46,397.13 C728.98,396.61 728.68,396.05 728.26,395.94 C727.14,395.65 725.17,398.66 716.67,414.67 ZM 745.01 427.29 C746.12,427.51 748.84,426.50 752.93,424.38 C747.82,427.16 746.09,427.84 745.01,427.29 ZM 761.73 419.38 C764.25,417.86 767.01,416.13 770.00,414.20 C785.48,404.23 798.04,393.55 807.58,382.30 C796.44,395.45 781.02,407.94 761.73,419.38 ZM 826.48 348.98 C828.32,343.01 829.41,336.94 829.74,330.78 C829.39,337.30 828.40,343.03 826.48,348.98 ZM 740.21 418.93 C741.84,422.25 743.21,424.87 744.01,426.20 C743.24,424.96 741.85,422.29 740.21,418.93 ZM 678.04 488.63 C675.36,493.88 673.71,497.22 673.57,497.70 C673.42,498.17 673.34,498.55 673.33,498.86 C673.34,498.55 673.42,498.17 673.57,497.70 C673.71,497.21 675.36,493.87 678.04,488.63 Z" fill="rgb(221,166,12)"/>
<path d="M 787.78 508.25 C776.43,489.07 775.00,486.47 775.00,485.01 C775.00,484.15 779.43,480.85 785.25,477.38 C808.68,463.41 827.88,448.26 842.54,432.20 C841.55,433.33 840.54,434.46 839.51,435.60 C834.71,440.87 831.63,445.07 831.81,446.12 C831.97,447.08 830.74,453.19 829.07,459.68 C827.41,466.18 823.59,481.62 820.59,494.00 C817.58,506.38 811.47,531.58 807.00,550.00 C802.52,568.42 798.20,585.38 797.38,587.67 C795.15,593.95 790.64,599.54 785.29,602.68 L 780.50 605.50 L 638.00 605.71 C499.94,605.91 495.35,605.86 490.64,604.01 C484.71,601.69 482.57,599.83 479.15,594.00 L 476.50 589.50 L 476.23 461.88 C475.97,338.89 476.03,334.09 477.84,329.87 C477.99,329.52 478.14,329.19 478.30,328.85 C477.23,332.06 477.00,355.47 477.00,454.63 C477.00,521.98 477.17,576.92 477.39,576.92 L 477.39 576.92 C477.60,576.69 480.70,564.80 484.27,550.50 C487.84,536.20 492.85,515.72 495.39,505.00 L 500.02 485.50 L 500.46 439.00 C500.43,453.33 500.55,465.44 500.77,468.85 C501.07,473.51 501.65,476.59 502.08,475.83 C502.50,475.08 505.85,461.87 509.53,446.48 C513.21,431.09 516.87,416.92 517.66,415.00 C519.50,410.52 524.40,405.42 529.50,402.66 C533.44,400.53 534.35,400.49 594.57,400.00 L 655.65 399.50 L 659.70 396.82 C661.93,395.34 665.95,391.61 668.63,388.52 C671.31,385.44 676.17,381.25 679.44,379.21 L 685.38 375.50 L 680.44 375.00 C677.72,374.72 638.93,374.57 594.24,374.66 C588.73,374.67 583.57,374.68 578.74,374.69 C618.47,374.43 681.19,374.26 780.37,374.03 L 794.24 374.00 L 793.81 368.00 C793.63,365.58 793.40,363.95 792.92,362.63 C794.26,365.39 795.00,368.29 795.00,371.08 L 795.00 373.86 L 804.25 374.18 L 804.89 374.21 C809.45,374.37 811.93,374.46 813.81,373.44 C814.19,373.23 814.55,372.98 814.89,372.67 C812.71,375.92 810.27,379.13 807.58,382.30 L 807.58 382.31 C798.03,393.56 785.47,404.23 770.00,414.20 C767.01,416.13 764.25,417.86 761.73,419.38 C759.12,420.93 756.43,422.46 753.67,423.97 C753.41,424.12 753.17,424.25 752.92,424.38 C748.84,426.50 746.12,427.51 745.01,427.29 C744.82,427.19 744.65,427.05 744.49,426.88 C744.38,426.77 744.22,426.54 744.01,426.20 C743.21,424.87 741.84,422.25 740.21,418.93 C739.18,416.83 738.06,414.45 736.93,412.00 C735.97,409.90 735.01,407.87 734.11,406.00 C730.88,399.12 728.31,394.01 728.05,394.01 C727.75,394.02 724.96,398.86 721.87,404.76 C720.90,406.60 719.07,410.08 716.67,414.67 L 716.67 414.67 C712.97,421.62 708.04,431.03 701.40,443.69 C699.64,447.06 697.75,450.66 695.74,454.50 C688.59,468.13 682.12,480.62 678.04,488.63 C678.03,488.64 678.03,488.65 678.02,488.66 C677.90,488.89 677.79,489.12 677.67,489.35 C677.66,489.38 677.64,489.41 677.62,489.44 C675.20,494.22 673.70,497.24 673.57,497.70 C673.42,498.17 673.34,498.55 673.33,498.86 C673.33,499.78 674.06,500.07 676.20,500.41 C697.64,503.81 714.58,506.40 729.50,508.54 C739.40,509.96 750.42,511.58 754.00,512.14 C774.69,515.36 784.98,516.77 788.73,516.88 L 792.96 517.00 ZM 615.56 347.02 C618.61,348.51 627.01,348.56 698.50,349.00 L 618.30 349.00 ZM 791.61 360.27 C791.29,359.86 790.92,359.44 790.50,359.00 C788.92,357.35 787.05,356.00 786.35,356.00 C785.65,356.00 784.05,354.90 782.79,353.56 C781.53,352.21 779.23,350.64 777.68,350.06 C776.98,349.79 772.79,349.58 765.05,349.41 L 779.50 349.50 L 783.67 352.21 C786.92,354.32 789.64,357.15 791.61,360.27 ZM 864.72 400.47 C870.19,389.53 874.46,377.46 876.49,366.72 C874.27,378.45 870.42,389.57 864.72,400.47 ZM 513.48 375.95 C511.83,376.19 510.55,376.49 509.54,376.84 C509.60,376.80 509.66,376.77 509.72,376.73 C510.23,376.43 511.23,376.17 513.48,375.95 ZM 592.83 320.62 C590.57,318.74 588.17,317.27 585.72,316.28 C588.35,317.33 590.59,318.65 592.83,320.62 ZM 604.63 335.55 C603.61,334.15 602.58,332.65 601.55,331.07 C601.87,331.53 602.19,332.01 602.53,332.50 C603.29,333.61 603.98,334.63 604.63,335.55 ZM 483.53 321.16 C485.27,319.35 487.24,317.85 489.38,316.71 C487.31,317.81 485.30,319.36 483.53,321.16 ZM 822.95 358.06 C824.44,354.74 825.64,351.62 826.61,348.57 C826.57,348.71 826.53,348.84 826.48,348.98 C825.54,351.91 824.37,354.90 822.95,358.06 ZM 581.68 314.97 C582.92,315.24 583.91,315.59 585.08,316.03 C583.91,315.59 582.91,315.24 581.68,314.97 Z" fill="rgb(245,192,32)"/>
<path d="M 0.00 378.00 L 0.00 0.00 L 693.50 0.00 L 1387.00 0.00 L 1387.00 378.00 L 1387.00 756.00 L 693.50 756.00 L 0.00 756.00 L 0.00 378.00 ZM 785.29 602.68 C790.64,599.54 795.15,593.95 797.38,587.67 C798.20,585.38 802.52,568.42 807.00,550.00 C811.47,531.58 817.58,506.38 820.59,494.00 C823.59,481.62 827.41,466.18 829.07,459.68 C830.74,453.19 831.97,447.08 831.81,446.12 C831.63,445.07 834.71,440.87 839.51,435.60 C860.17,412.92 871.86,391.15 876.49,366.72 C878.37,356.84 878.39,336.67 876.54,328.03 C875.78,324.47 875.33,321.27 875.55,320.92 C875.76,320.57 878.45,320.03 881.51,319.71 C895.11,318.31 911.68,305.64 918.59,291.35 C928.18,271.51 924.25,248.06 908.73,232.55 C902.22,226.03 896.42,222.55 887.00,219.49 C883.97,218.51 881.17,217.21 880.77,216.60 C880.36,216.00 880.02,213.61 880.02,211.30 C879.99,204.10 878.00,196.84 873.43,187.32 C859.84,159.00 828.41,144.40 798.30,152.41 C795.43,153.17 789.58,155.53 785.30,157.65 C774.99,162.74 761.88,175.55 757.57,184.75 C755.95,188.19 754.25,191.00 753.78,191.00 C753.31,191.00 751.03,189.99 748.71,188.75 C745.08,186.81 742.99,186.50 733.50,186.50 C723.14,186.50 722.12,186.69 715.93,189.72 C703.58,195.76 694.89,207.82 692.66,222.02 L 691.60 228.74 L 684.86 230.91 C672.44,234.90 661.03,245.58 655.87,258.00 C652.62,265.85 652.58,282.96 655.80,291.00 C660.63,303.09 670.75,312.93 683.74,318.17 L 689.50 320.50 L 759.88 320.78 L 830.26 321.06 L 829.74 330.78 C829.14,341.92 826.68,350.71 820.85,362.50 C814.78,374.81 815.12,374.57 804.25,374.18 L 795.00 373.86 L 795.00 371.08 C795.00,364.18 790.47,356.63 783.67,352.21 L 779.50 349.50 L 698.50 349.00 C617.57,348.50 617.50,348.50 614.50,346.35 C610.48,343.46 608.18,340.81 602.53,332.50 C595.54,322.24 591.51,318.44 585.08,316.03 C579.60,313.98 578.13,313.93 536.47,314.21 C494.35,314.49 493.42,314.54 489.38,316.71 C484.40,319.37 480.37,323.96 477.84,329.87 C476.03,334.09 475.97,338.89 476.23,461.88 L 476.50 589.50 L 479.15 594.00 C482.57,599.83 484.71,601.69 490.64,604.01 C495.35,605.86 499.94,605.91 638.00,605.71 L 780.50 605.50 L 785.29 602.68 ZM 500.77 468.85 C500.47,464.26 500.37,443.89 500.54,423.59 L 500.85 386.67 L 503.69 382.64 C509.59,374.24 502.68,374.84 594.24,374.66 C638.93,374.57 677.72,374.72 680.44,375.00 L 685.38 375.50 L 679.44 379.21 C676.17,381.25 671.31,385.44 668.63,388.52 C665.95,391.61 661.93,395.34 659.70,396.82 L 655.65 399.50 L 594.57 400.00 C534.35,400.49 533.44,400.53 529.50,402.66 C524.40,405.42 519.50,410.52 517.66,415.00 C516.87,416.92 513.21,431.09 509.53,446.48 C505.85,461.87 502.50,475.08 502.08,475.83 C501.65,476.59 501.07,473.51 500.77,468.85 Z" fill="rgb(247,250,250)"/>
</g>
</svg>